<svg version="1.1" xmlns="http://www.w3.org/2000/svg" xmlns:xlink="http://www.w3.org/1999/xlink" width="16" height="16" viewBox="0,0,256,256"><g fill="#1e90ff" fill-rule="nonzero" stroke="none" stroke-width="1" stroke-linecap="butt" stroke-linejoin="miter" stroke-miterlimit="10" stroke-dasharray="" stroke-dashoffset="0" font-family="none" font-weight="none" font-size="none" text-anchor="none" style="mix-blend-mode: normal"><g transform="translate(0,-8) scale(16,16)"><path d="M0,6c0,-1.10457 0.89543,-2 2,-2h12c1.10457,0 2,0.89543 2,2v3c0,1.10457 -0.89543,2 -2,2h-4.731c0.144,0.162 0.33,0.324 0.531,0.475c0.28733,0.21289 0.59055,0.40345 0.907,0.57l0.014,0.006l0.003,0.002c0.20722,0.10386 0.3159,0.33652 0.26254,0.56209c-0.05336,0.22557 -0.25475,0.38489 -0.48654,0.38491h-5c-0.23179,-0.00002 -0.43318,-0.15934 -0.48654,-0.38491c-0.05336,-0.22557 0.05532,-0.45823 0.26254,-0.56209l0.003,-0.002l0.014,-0.007c0.09082,-0.04659 0.1802,-0.09594 0.268,-0.148c0.22052,-0.12858 0.43384,-0.26912 0.639,-0.421c0.2,-0.15 0.387,-0.313 0.531,-0.475h-4.731c-1.10457,0 -2,-0.89543 -2,-2zM2,5c-0.55228,0 -1,0.44772 -1,1v3c0,0.55228 0.44772,1 1,1h12c0.55228,0 1,-0.44772 1,-1v-3c0,-0.55228 -0.44772,-1 -1,-1z"></path><path d="M8,6.5c-0.55228,0 -1,0.44772 -1,1c0,0.55228 0.44772,1 1,1c0.55228,0 1,-0.44772 1,-1c0,-0.55228 -0.44772,-1 -1,-1M6,7.5c0,-1.10457 0.89543,-2 2,-2c1.10457,0 2,0.89543 2,2c0,1.10457 -0.89543,2 -2,2c-1.10457,0 -2,-0.89543 -2,-2M13,7.5c0,0.27614 -0.22386,0.5 -0.5,0.5c-0.27614,0 -0.5,-0.22386 -0.5,-0.5c0,-0.27614 0.22386,-0.5 0.5,-0.5c0.27614,0 0.5,0.22386 0.5,0.5"></path></g></g></svg>